<svg xmlns="http://www.w3.org/2000/svg" width="95.74" height="19" viewBox="0 0 95.74 19">
  <g id="Group_68" data-name="Group 68" transform="translate(-613.029 -33)">
    <path id="Path_2767" data-name="Path 2767" d="M5.814.216A4.922,4.922,0,0,1,3.231-.459,4.958,4.958,0,0,1,1.449-2.286,5.174,5.174,0,0,1,.792-4.9,5.194,5.194,0,0,1,1.44-7.488,4.735,4.735,0,0,1,3.222-9.3a5.075,5.075,0,0,1,2.592-.657A4.878,4.878,0,0,1,7.668-9.6a4.712,4.712,0,0,1,1.5.963,3.815,3.815,0,0,1,.945,1.422L8.334-6.39a2.633,2.633,0,0,0-.981-1.215,2.672,2.672,0,0,0-1.539-.459,2.772,2.772,0,0,0-1.485.405A2.829,2.829,0,0,0,3.294-6.525a3.525,3.525,0,0,0-.378,1.647,3.525,3.525,0,0,0,.378,1.647A2.894,2.894,0,0,0,4.329-2.088a2.727,2.727,0,0,0,1.485.414,2.619,2.619,0,0,0,1.539-.459,2.775,2.775,0,0,0,.981-1.233l1.782.846a3.766,3.766,0,0,1-.927,1.395,4.758,4.758,0,0,1-1.5.981A4.818,4.818,0,0,1,5.814.216Zm9.108,0a4.044,4.044,0,0,1-1.737-.351,2.775,2.775,0,0,1-1.161-.972,2.583,2.583,0,0,1-.414-1.467A2.872,2.872,0,0,1,11.961-4,2.854,2.854,0,0,1,13.05-5.058,5.345,5.345,0,0,1,14.9-5.67l3.384-.558v1.6L15.3-4.1a2.233,2.233,0,0,0-1.188.513,1.263,1.263,0,0,0-.378.945,1.126,1.126,0,0,0,.423.909,1.649,1.649,0,0,0,1.089.351,2.837,2.837,0,0,0,1.449-.36,2.558,2.558,0,0,0,.963-.963A2.67,2.67,0,0,0,18-4.05v-2.5a1.488,1.488,0,0,0-.531-1.179,2.085,2.085,0,0,0-1.413-.459,2.4,2.4,0,0,0-1.413.423,2.539,2.539,0,0,0-.891,1.089L12.06-7.524a3.2,3.2,0,0,1,.882-1.269,4.452,4.452,0,0,1,1.431-.855,4.922,4.922,0,0,1,1.737-.306,4.627,4.627,0,0,1,2.043.432,3.345,3.345,0,0,1,1.386,1.2,3.191,3.191,0,0,1,.495,1.773V0H18.09V-1.764l.414.054a3.676,3.676,0,0,1-.873,1.026,3.936,3.936,0,0,1-1.206.666A4.567,4.567,0,0,1,14.922.216ZM22.41,3.6V-9.738h1.944v2.016L24.12-8.19a3.754,3.754,0,0,1,1.44-1.3,4.383,4.383,0,0,1,2.052-.468,4.741,4.741,0,0,1,2.493.666A4.8,4.8,0,0,1,31.851-7.47a5.253,5.253,0,0,1,.639,2.592,5.252,5.252,0,0,1-.639,2.592A4.887,4.887,0,0,1,30.114-.459a4.68,4.68,0,0,1-2.5.675,4.507,4.507,0,0,1-2.061-.468A3.346,3.346,0,0,1,24.12-1.6l.324-.378V3.6Zm5-5.274a2.838,2.838,0,0,0,1.53-.414A2.937,2.937,0,0,0,30-3.231a3.458,3.458,0,0,0,.387-1.647A3.4,3.4,0,0,0,30-6.516,2.953,2.953,0,0,0,28.944-7.65a2.838,2.838,0,0,0-1.53-.414,2.851,2.851,0,0,0-1.521.414,2.93,2.93,0,0,0-1.062,1.134,3.4,3.4,0,0,0-.387,1.638,3.458,3.458,0,0,0,.387,1.647,2.914,2.914,0,0,0,1.062,1.143A2.851,2.851,0,0,0,27.414-1.674ZM38.07.216a4.666,4.666,0,0,1-2.619-.738A3.906,3.906,0,0,1,33.876-2.5l1.566-.738a3.313,3.313,0,0,0,1.089,1.314,2.62,2.62,0,0,0,1.539.486,1.956,1.956,0,0,0,1.17-.324,1.03,1.03,0,0,0,.45-.882.853.853,0,0,0-.2-.585A1.55,1.55,0,0,0,39-3.6a2.905,2.905,0,0,0-.6-.216l-1.53-.432a3.748,3.748,0,0,1-1.881-1.089,2.543,2.543,0,0,1-.621-1.7,2.657,2.657,0,0,1,.45-1.539,2.94,2.94,0,0,1,1.242-1.017,4.259,4.259,0,0,1,1.782-.36,4.367,4.367,0,0,1,2.376.657A3.554,3.554,0,0,1,41.688-7.47l-1.566.738a2.409,2.409,0,0,0-.909-1.116,2.459,2.459,0,0,0-1.4-.414,1.658,1.658,0,0,0-1.062.315,1,1,0,0,0-.4.819.879.879,0,0,0,.18.567,1.287,1.287,0,0,0,.468.36,4.169,4.169,0,0,0,.594.225l1.584.468A3.792,3.792,0,0,1,41.04-4.437,2.527,2.527,0,0,1,41.688-2.7a2.589,2.589,0,0,1-.459,1.521A3.048,3.048,0,0,1,39.96-.153,4.52,4.52,0,0,1,38.07.216Zm9.09,0a3.681,3.681,0,0,1-1.926-.5,3.38,3.38,0,0,1-1.287-1.386,4.439,4.439,0,0,1-.459-2.061V-9.738h2.034v5.832a2.441,2.441,0,0,0,.27,1.17,1.939,1.939,0,0,0,.756.783,2.2,2.2,0,0,0,1.116.279A2.183,2.183,0,0,0,48.8-1.962a2.033,2.033,0,0,0,.765-.81A2.559,2.559,0,0,0,49.842-4V-9.738h2.016V0H49.932V-1.908l.216.252A2.7,2.7,0,0,1,49.014-.27,3.473,3.473,0,0,1,47.16.216ZM54.234,0V-13.626h2.034V0Zm8.982.216a4.922,4.922,0,0,1-2.583-.675A4.737,4.737,0,0,1,58.878-2.3a5.364,5.364,0,0,1-.63-2.6,5.225,5.225,0,0,1,.639-2.61A4.832,4.832,0,0,1,60.606-9.3a4.616,4.616,0,0,1,2.448-.657,4.849,4.849,0,0,1,1.962.378,4.212,4.212,0,0,1,1.458,1.035,4.626,4.626,0,0,1,.909,1.5,5.116,5.116,0,0,1,.315,1.8q0,.234-.018.486a2.733,2.733,0,0,1-.072.468H59.85V-5.9h6.606l-.972.738a2.6,2.6,0,0,0-.117-1.575,2.456,2.456,0,0,0-.9-1.1,2.474,2.474,0,0,0-1.413-.4,2.6,2.6,0,0,0-1.44.4,2.631,2.631,0,0,0-.972,1.152,3.709,3.709,0,0,0-.27,1.809,3.16,3.16,0,0,0,.279,1.728A2.775,2.775,0,0,0,61.695-2a2.884,2.884,0,0,0,1.539.414,2.738,2.738,0,0,0,1.5-.4,2.919,2.919,0,0,0,.981-1.026l1.656.81a3.5,3.5,0,0,1-.891,1.233,4.43,4.43,0,0,1-1.44.864A5.147,5.147,0,0,1,63.216.216ZM73.386,0V-3.618H69.768v-1.8h3.618V-9h1.8v3.582h3.582v1.8H75.186V0Z" transform="translate(630 48)"/>
    <path id="bolt" d="M10.787,19H7.741l1.583-6.333H6.053a2.027,2.027,0,0,1-1.94-2.613L7.153,0h7.495L12.273,6.333h3.185a2.005,2.005,0,0,1,1.67,3.113Z" transform="translate(609.002 33)" fill="#3e63ff"/>
  </g>
</svg>
