<svg xmlns="http://www.w3.org/2000/svg" width="192" height="192" viewBox="0 0 192 192">
  <g id="Group_5477" data-name="Group 5477" transform="translate(-61 -140)">
    <rect id="Rectangle_805" data-name="Rectangle 805" width="192" height="192" transform="translate(61 140)" fill="none"/>
    <g id="Group_5474" data-name="Group 5474" transform="translate(20435 -5816.39)">
      <path id="Path_14" data-name="Path 14" d="M60.2,85.282H0V38.461a38.461,38.461,0,0,1,76.921,0v30.1A16.722,16.722,0,0,1,60.2,85.282" transform="translate(-20316 5971.39)" fill="#00f3bb"/>
      <path id="Path_15" data-name="Path 15" d="M41.786,104.91H28.808V19.628h9.461a3.518,3.518,0,0,1,3.517,3.517Z" transform="translate(-20296.639 5984.584)" fill="#f5f8ff"/>
      <path id="Path_16" data-name="Path 16" d="M31.789,104.91H24.373V27.044l7.416-7.416Z" transform="translate(-20299.615 5984.583)" fill="#000f3b"/>
      <path id="Path_17" data-name="Path 17" d="M31.807,95.712H18.829V30.824H28.79a3.015,3.015,0,0,1,3.017,3.015Z" transform="translate(-20303.346 5992.11)" fill="#f5f8ff"/>
      <path id="Path_18" data-name="Path 18" d="M21.811,95.712H14.395V38.238l7.416-7.415Z" transform="translate(-20306.326 5992.109)" fill="#000f3b"/>
      <path id="Path_19" data-name="Path 19" d="M21.829,69.515H8.851v-44.5H19.528a2.3,2.3,0,0,1,2.3,2.3Z" transform="translate(-20310.049 5988.207)" fill="#f5f8ff"/>
      <path id="Path_20" data-name="Path 20" d="M11.836,25.016v44.5H4.412V32.441Z" transform="translate(-20313.037 5988.205)" fill="#000f3b"/>
      <path id="Path_21" data-name="Path 21" d="M76.921,40.471V97.326A38.461,38.461,0,1,1,0,97.326V57.193H60.2A16.728,16.728,0,0,0,76.921,40.471" transform="translate(-20316 5998.594)" fill="#3e63ff"/>
      <path id="Path_22" data-name="Path 22" d="M52.072,13,32.841,30.558,12.775,27.214,11.1,28.886,4.414,35.575" transform="translate(-20313.031 5980.129)" fill="none" stroke="#000f3b" stroke-linecap="round" stroke-linejoin="round" stroke-width="1"/>
      <path id="Path_23" data-name="Path 23" d="M30.414,12.5H35.43v5.017" transform="translate(-20295.557 5979.792)" fill="none" stroke="#000f3b" stroke-linecap="round" stroke-linejoin="round" stroke-width="1"/>
    </g>
  </g>
</svg>
