<svg xmlns="http://www.w3.org/2000/svg" width="14.372" height="8.625" viewBox="0 0 14.372 8.625">
  <path id="chart-line-up" d="M16.217,5H13.342a.719.719,0,0,0,0,1.437H15.9l-3.49,3.383a.734.734,0,0,1-1.015,0c-.029-.029-.89-.642-.89-.642a2.214,2.214,0,0,0-2.991.037l-3.3,3.172a.719.719,0,0,0,1,1.036L8.522,10.24a.734.734,0,0,1,1.015,0c.029.029.89.642.89.642a2.211,2.211,0,0,0,2.992-.039l3.514-3.406v2.592a.719.719,0,0,0,1.437,0V7.154A2.159,2.159,0,0,0,16.216,5Z" transform="translate(-3.999 -4.998)" fill="#2edc90"/>
</svg>
