<svg xmlns="http://www.w3.org/2000/svg" width="14.372" height="8.625" viewBox="0 0 14.372 8.625">
  <path id="chart-line-up" d="M16.216,13.621H13.342a.719.719,0,0,1,0-1.437H15.9L12.412,8.8a.734.734,0,0,0-1.015,0c-.029.029-.89.642-.89.642a2.214,2.214,0,0,1-2.991-.037L4.22,6.234a.719.719,0,0,1,1-1.036L8.522,8.381a.734.734,0,0,0,1.015,0c.029-.029.89-.642.89-.642a2.211,2.211,0,0,1,2.992.039l3.514,3.406V8.592a.719.719,0,0,1,1.437,0v2.875a2.159,2.159,0,0,1-2.156,2.156Z" transform="translate(-3.999 -4.998)" fill="#ff4f55"/>
</svg>
