<svg xmlns="http://www.w3.org/2000/svg" xmlns:xlink="http://www.w3.org/1999/xlink" width="159.343" height="45.221" viewBox="0 0 159.343 45.221">
  <defs>
    <clipPath id="clip-path">
      <rect id="Rectangle_2" data-name="Rectangle 2" width="159.343" height="45.221" fill="none"/>
    </clipPath>
  </defs>
  <g id="Group_2" data-name="Group 2" transform="translate(0 0)">
    <g id="Group_1" data-name="Group 1" transform="translate(0 0)" clip-path="url(#clip-path)">
      <path id="Path_1" data-name="Path 1" d="M91.946,25.973V17.822c0-2.761-1.157-4.313-3.445-4.313-2.419,0-3.471,1.341-3.471,4.259v8.2H82.3V17.506c0-2.866-1.341-4-3.313-4-2.419,0-3.6,1.42-3.6,4.286v8.178H72.645V11.405h2.524v1.578h.053A4.848,4.848,0,0,1,79.4,11.011a5.005,5.005,0,0,1,4.523,2.446,5.112,5.112,0,0,1,4.812-2.446c3.787,0,5.943,2.367,5.943,6.127v8.835Z" transform="translate(-39.709 -6.019)"/>
      <path id="Path_2" data-name="Path 2" d="M140.008,25.973V23.712h-.053a5.537,5.537,0,0,1-4.944,2.629,7.512,7.512,0,0,1-7.731-7.415,7.557,7.557,0,0,1,7.625-7.915,5.8,5.8,0,0,1,5.049,2.446h.053V11.405h2.735V25.973Zm.053-7.258a5.026,5.026,0,0,0-5.075-5.206,5.168,5.168,0,1,0,5.075,5.206" transform="translate(-69.575 -6.019)"/>
      <path id="Path_3" data-name="Path 3" d="M169.157,25.973V11.405h2.55v1.315h.053a4.39,4.39,0,0,1,3.708-1.71v2.814c-2.367.079-3.576,1.525-3.576,3.971v8.178Z" transform="translate(-92.465 -6.019)"/>
      <path id="Path_4" data-name="Path 4" d="M189.455,1.094h2.735V20.552h-2.735Zm8.625,19.458-5.838-7.547,5.18-7.021h3.234l-5.285,6.863,6.127,7.7Z" transform="translate(-103.56 -0.598)"/>
      <path id="Path_5" data-name="Path 5" d="M219.043,19.873a5,5,0,0,0,4.786,3.97,4.691,4.691,0,0,0,4.155-2.445h2.735a7.465,7.465,0,0,1-6.994,4.943,7.637,7.637,0,0,1-7.415-7.52,7.521,7.521,0,0,1,7.337-7.81,7.42,7.42,0,0,1,7.546,7.494,8.266,8.266,0,0,1-.079,1.367Zm9.414-2.1a4.73,4.73,0,0,0-9.414,0Z" transform="translate(-118.239 -6.019)"/>
      <path id="Path_6" data-name="Path 6" d="M253.487,20.552V8.482h-1.972v-2.5h1.972V1.094h2.735V5.984h2.393v2.5h-2.393v12.07Z" transform="translate(-137.484 -0.598)"/>
      <path id="Path_7" data-name="Path 7" d="M102.719,66.16a7.555,7.555,0,1,1-7.205-10.15,7.372,7.372,0,0,1,7.205,5.233H99.695a4.313,4.313,0,0,0-4.1-2.734c-2.866,0-4.785,2.183-4.785,5.154,0,2.893,1.972,5.18,4.733,5.18a4.391,4.391,0,0,0,4.128-2.682Z" transform="translate(-48.142 -30.616)"/>
      <path id="Path_8" data-name="Path 8" d="M137.166,70.973V68.712h-.053a5.537,5.537,0,0,1-4.944,2.629,7.665,7.665,0,1,1-.105-15.33,5.8,5.8,0,0,1,5.049,2.446h.053V56.405H139.9V70.973Zm.053-7.258a5.026,5.026,0,0,0-5.075-5.206,5.168,5.168,0,1,0,5.075,5.206" transform="translate(-68.021 -30.617)"/>
      <path id="Path_9" data-name="Path 9" d="M167.474,75.838V56.405h2.5v2.236h.053a6.129,6.129,0,0,1,5.18-2.63,7.51,7.51,0,0,1,7.546,7.862,7.357,7.357,0,0,1-7.363,7.468,5.838,5.838,0,0,1-5.128-2.471h-.052v6.968Zm12.543-12.122a5.161,5.161,0,0,0-5.022-5.206,5.175,5.175,0,0,0,.1,10.334,4.991,4.991,0,0,0,4.917-5.128" transform="translate(-91.545 -30.617)"/>
      <path id="Path_10" data-name="Path 10" d="M211.5,60.271a1.786,1.786,0,0,0-1.867-1.762,1.581,1.581,0,0,0-1.709,1.551c0,1.236,1.262,1.6,2.708,2.051,2.051.631,3.944,1.867,3.944,4.575a4.551,4.551,0,0,1-4.891,4.654,4.963,4.963,0,0,1-5.154-5.154h2.735c.131,1.762,1.026,2.655,2.471,2.655a1.948,1.948,0,0,0,2.1-2c0-1-.763-1.656-2.471-2.208-3.576-1.131-4.181-2.682-4.181-4.339a4.385,4.385,0,0,1,4.575-4.286,4.3,4.3,0,0,1,4.47,4.26Z" transform="translate(-111.804 -30.617)"/>
      <path id="Path_11" data-name="Path 11" d="M242.209,71.449V69.871h-.053a4.814,4.814,0,0,1-4.286,1.946c-3.129,0-6.074-1.683-6.074-6.811V56.881h2.734V64.8c0,3.05,1.131,4.523,3.629,4.523,2.524,0,3.813-1.762,3.813-4.575V56.881h2.735V71.449Z" transform="translate(-126.705 -31.093)"/>
      <rect id="Rectangle_1" data-name="Rectangle 1" width="2.734" height="19.458" transform="translate(121.657 20.898)"/>
      <path id="Path_12" data-name="Path 12" d="M283.248,64.873a5,5,0,0,0,4.786,3.97,4.692,4.692,0,0,0,4.155-2.445h2.735a7.465,7.465,0,0,1-6.994,4.943,7.637,7.637,0,0,1-7.415-7.52,7.521,7.521,0,0,1,7.336-7.81,7.421,7.421,0,0,1,7.547,7.494,8.263,8.263,0,0,1-.079,1.367Zm9.414-2.1a4.73,4.73,0,0,0-9.414,0Z" transform="translate(-153.335 -30.617)"/>
      <path id="Path_13" data-name="Path 13" d="M323.935,82.12a2.267,2.267,0,1,1-2.267-2.267,2.267,2.267,0,0,1,2.267,2.267" transform="translate(-174.592 -43.65)"/>
      <path id="Path_14" data-name="Path 14" d="M16.322,23.122H0V10.428a10.428,10.428,0,1,1,20.855,0v8.161a4.534,4.534,0,0,1-4.534,4.534" transform="translate(0 0)" fill="#00f3bb"/>
      <path id="Path_15" data-name="Path 15" d="M32.327,42.75H28.808V19.628h2.565a.954.954,0,0,1,.953.953Z" transform="translate(-15.747 -10.729)" fill="#f5f8ff"/>
      <path id="Path_16" data-name="Path 16" d="M26.384,42.75H24.373V21.638l2.011-2.011Z" transform="translate(-13.323 -10.729)" fill="#000f3b"/>
      <path id="Path_17" data-name="Path 17" d="M22.348,48.417H18.829V30.824h2.7a.817.817,0,0,1,.818.817Z" transform="translate(-10.292 -16.849)" fill="#f5f8ff"/>
      <path id="Path_18" data-name="Path 18" d="M16.405,48.417H14.395V32.834l2.011-2.01Z" transform="translate(-7.868 -16.849)" fill="#000f3b"/>
      <path id="Path_19" data-name="Path 19" d="M12.37,37.083H8.851V25.019h2.895a.624.624,0,0,1,.624.624Z" transform="translate(-4.838 -13.676)" fill="#f5f8ff"/>
      <path id="Path_20" data-name="Path 20" d="M6.425,25.016V37.081H4.412V27.029Z" transform="translate(-2.412 -13.675)" fill="#000f3b"/>
      <path id="Path_21" data-name="Path 21" d="M20.855,40.471V55.886A10.428,10.428,0,1,1,0,55.886V45H16.322a4.535,4.535,0,0,0,4.534-4.534" transform="translate(0 -22.122)" fill="#3e63ff"/>
      <path id="Path_22" data-name="Path 22" d="M17.335,13l-5.214,4.76-5.441-.907-.453.453L4.414,19.121" transform="translate(-2.413 -7.106)" fill="none" stroke="#000f3b" stroke-linecap="round" stroke-linejoin="round" stroke-width="1"/>
      <path id="Path_23" data-name="Path 23" d="M30.414,12.5h1.36v1.36" transform="translate(-16.625 -6.833)" fill="none" stroke="#000f3b" stroke-linecap="round" stroke-linejoin="round" stroke-width="1"/>
      <g id="registered-98574" transform="translate(131.062 9.322)">
        <path id="Path_2778" data-name="Path 2778" d="M14.931,18.862a3.931,3.931,0,1,1,2.78-1.151A3.905,3.905,0,0,1,14.931,18.862Zm0-6.845a2.914,2.914,0,1,0,2.914,2.914A2.918,2.918,0,0,0,14.931,12.017Z" transform="translate(0)"/>
        <path id="Path_2779" data-name="Path 2779" d="M58.243,48a.7.7,0,0,0,.462-.12.492.492,0,0,0,.142-.4.48.48,0,0,0-.142-.39.717.717,0,0,0-.462-.118H57.81V48h.433m-.433.71v1.509H56.782V46.235h1.57a1.993,1.993,0,0,1,1.154.264.959.959,0,0,1,.368.836,1.045,1.045,0,0,1-.192.649,1.1,1.1,0,0,1-.574.374.751.751,0,0,1,.377.219,1.972,1.972,0,0,1,.339.513l.558,1.132H59.287l-.486-.991a1.093,1.093,0,0,0-.3-.409.664.664,0,0,0-.4-.11H57.81" transform="translate(-43.522 -33.383)"/>
      </g>
    </g>
  </g>
</svg>
