<svg xmlns="http://www.w3.org/2000/svg" xmlns:xlink="http://www.w3.org/1999/xlink" width="306" height="501" viewBox="0 0 306 501">
  <defs>
    <clipPath id="clip-path">
      <path id="Rectangle_810" data-name="Rectangle 810" d="M0,0H302a4,4,0,0,1,4,4V497a4,4,0,0,1-4,4H0a0,0,0,0,1,0,0V0A0,0,0,0,1,0,0Z" transform="translate(748 139)" fill="#3e63ff"/>
    </clipPath>
  </defs>
  <g id="Mask_Group_17" data-name="Mask Group 17" transform="translate(-748 -139)" clip-path="url(#clip-path)">
    <path id="Rectangle_809" data-name="Rectangle 809" d="M0,0H302a4,4,0,0,1,4,4V497a4,4,0,0,1-4,4H0a0,0,0,0,1,0,0V0A0,0,0,0,1,0,0Z" transform="translate(748 139)" fill="#3e63ff"/>
    <path id="bolt" d="M138.651,378.34H78.007l31.528-126.113H44.382A40.372,40.372,0,0,1,5.744,200.2L66.294,0H215.533L168.241,126.113H231.66A39.931,39.931,0,0,1,264.922,188.1Z" transform="matrix(0.883, -0.469, 0.469, 0.883, 776.251, 125.427)" fill="#7b94ff"/>
    <g id="bolt-2" data-name="bolt" transform="translate(788.957 176.897) rotate(12)" fill="#fff">
      <path d="M 48.78039932250977 123.7431488037109 L 46.63443756103516 123.7431488037109 L 27.44061851501465 123.7431488037109 L 22.31751823425293 123.7431488037109 L 23.56003761291504 118.7730102539062 L 32.29610443115234 83.82875061035156 L 16.79843711853027 83.82875061035156 C 14.19335746765137 83.82766723632812 11.58803749084473 83.20857238769531 9.26243782043457 82.03836822509766 C 6.936837673187256 80.86817169189453 4.887077808380127 79.14491271972656 3.334777593612671 77.05490875244141 C 1.782477736473083 74.96491241455078 0.7250177264213562 72.50465393066406 0.2767377197742462 69.94013214111328 C -0.171542301774025 67.3756103515625 -0.01140229497104883 64.70250701904297 0.7398377060890198 62.20983123779297 L 19.90483856201172 -1.157949447631836 L 20.76437759399414 -3.99998950958252 L 23.73355865478516 -3.99998950958252 L 70.96725463867188 -3.99998950958252 L 76.7392578125 -3.99998950958252 L 74.71257781982422 1.404510617256165 L 61.77136611938477 35.91437149047852 L 76.07129669189453 35.91437149047852 C 82.20917510986328 35.91827011108398 87.82267761230469 39.27904891967773 90.72370147705078 44.6851692199707 C 93.624755859375 50.09131240844727 93.32187652587891 56.62693023681641 89.93323516845703 61.74155044555664 L 49.96713638305664 121.955192565918 L 48.78039932250977 123.7431488037109 Z" stroke="none"/>
      <path d="M 46.63444137573242 119.7431411743164 L 86.59869384765625 59.53229904174805 C 89.16853332519531 55.65350341796875 89.39919281005859 50.67636489868164 87.19910430908203 46.5765266418457 C 84.99905395507812 42.4766845703125 80.72414398193359 39.91734313964844 76.07128143310547 39.91439056396484 L 55.99935150146484 39.91439056396484 L 70.96723937988281 2.405339955657837e-06 L 23.73355674743652 2.405339955657837e-06 L 4.5696702003479 63.36407089233398 C 3.403602361679077 67.23316192626953 4.136488437652588 71.42581939697266 6.545965671539307 74.66989135742188 C 8.95542049407959 77.91395568847656 12.75746631622314 79.82707214355469 16.79844284057617 79.82875061035156 L 37.41921615600586 79.82875061035156 L 27.44060134887695 119.7431411743164 L 46.63444137573242 119.7431411743164 M 50.92637634277344 127.7431411743164 L 17.19439697265625 127.7431411743164 L 27.17300224304199 87.82875061035156 L 16.79844284057617 87.82875061035156 C 10.25532913208008 87.82602691650391 4.022988796234131 84.69002532958984 0.1236022487282753 79.43993377685547 C -3.775784015655518 74.18986511230469 -4.977147579193115 67.31720733642578 -3.090034008026123 61.05559158325195 L 17.79521560668945 -7.999997615814209 L 82.51123809814453 -7.999997615814209 L 67.54335021972656 31.91438865661621 L 76.07128143310547 31.91438865661621 C 83.68673706054688 31.91922950744629 90.64982604980469 36.08797836303711 94.24828338623047 42.79379653930664 C 97.84680938720703 49.49959182739258 97.47109985351562 57.60650253295898 93.26778411865234 63.95079803466797 L 50.92637634277344 127.7431411743164 Z" stroke="none" fill="#3e63ff"/>
    </g>
  </g>
</svg>
