<svg xmlns="http://www.w3.org/2000/svg" width="191.62" height="38.158" viewBox="0 0 191.62 38.158">
  <g id="Group_5482" data-name="Group 5482" transform="translate(-613.029 -37.033)">
    <path id="Path_2766" data-name="Path 2766" d="M11.628.432A9.844,9.844,0,0,1,6.462-.918,9.916,9.916,0,0,1,2.9-4.572a10.348,10.348,0,0,1-1.314-5.22,10.389,10.389,0,0,1,1.3-5.184,9.47,9.47,0,0,1,3.564-3.618,10.151,10.151,0,0,1,5.184-1.314,9.757,9.757,0,0,1,3.708.7,9.424,9.424,0,0,1,3.006,1.926,7.63,7.63,0,0,1,1.89,2.844L16.668-12.78a5.267,5.267,0,0,0-1.962-2.43,5.345,5.345,0,0,0-3.078-.918,5.545,5.545,0,0,0-2.97.81,5.658,5.658,0,0,0-2.07,2.268,7.05,7.05,0,0,0-.756,3.294,7.05,7.05,0,0,0,.756,3.294,5.788,5.788,0,0,0,2.07,2.286,5.454,5.454,0,0,0,2.97.828,5.239,5.239,0,0,0,3.078-.918,5.549,5.549,0,0,0,1.962-2.466L20.232-5.04a7.532,7.532,0,0,1-1.854,2.79A9.516,9.516,0,0,1,15.372-.288,9.637,9.637,0,0,1,11.628.432Zm18.216,0a8.088,8.088,0,0,1-3.474-.7,5.55,5.55,0,0,1-2.322-1.944,5.165,5.165,0,0,1-.828-2.934,5.743,5.743,0,0,1,.7-2.844A5.708,5.708,0,0,1,26.1-10.116a10.69,10.69,0,0,1,3.708-1.224l6.768-1.116v3.2L30.6-8.208a4.467,4.467,0,0,0-2.376,1.026,2.527,2.527,0,0,0-.756,1.89,2.253,2.253,0,0,0,.846,1.818,3.3,3.3,0,0,0,2.178.7,5.675,5.675,0,0,0,2.9-.72,5.117,5.117,0,0,0,1.926-1.926A5.341,5.341,0,0,0,36-8.1v-5a2.975,2.975,0,0,0-1.062-2.358,4.171,4.171,0,0,0-2.826-.918,4.8,4.8,0,0,0-2.826.846A5.078,5.078,0,0,0,27.5-13.356L24.12-15.048a6.4,6.4,0,0,1,1.764-2.538,8.9,8.9,0,0,1,2.862-1.71,9.844,9.844,0,0,1,3.474-.612,9.253,9.253,0,0,1,4.086.864,6.69,6.69,0,0,1,2.772,2.394,6.382,6.382,0,0,1,.99,3.546V0H36.18V-3.528l.828.108a7.353,7.353,0,0,1-1.746,2.052A7.872,7.872,0,0,1,32.85-.036,9.133,9.133,0,0,1,29.844.432ZM44.82,7.2V-19.476h3.888v4.032l-.468-.936a7.509,7.509,0,0,1,2.88-2.592,8.765,8.765,0,0,1,4.1-.936,9.483,9.483,0,0,1,4.986,1.332A9.592,9.592,0,0,1,63.7-14.94,10.505,10.505,0,0,1,64.98-9.756,10.5,10.5,0,0,1,63.7-4.572,9.775,9.775,0,0,1,60.228-.918a9.36,9.36,0,0,1-5,1.35A9.015,9.015,0,0,1,51.1-.5,6.692,6.692,0,0,1,48.24-3.2l.648-.756V7.2ZM54.828-3.348a5.675,5.675,0,0,0,3.06-.828,5.873,5.873,0,0,0,2.106-2.286,6.915,6.915,0,0,0,.774-3.294,6.81,6.81,0,0,0-.774-3.276A5.906,5.906,0,0,0,57.888-15.3a5.675,5.675,0,0,0-3.06-.828,5.7,5.7,0,0,0-3.042.828,5.86,5.86,0,0,0-2.124,2.268,6.81,6.81,0,0,0-.774,3.276,6.915,6.915,0,0,0,.774,3.294,5.828,5.828,0,0,0,2.124,2.286A5.7,5.7,0,0,0,54.828-3.348ZM76.14.432A9.331,9.331,0,0,1,70.9-1.044,7.812,7.812,0,0,1,67.752-5L70.884-6.48a6.626,6.626,0,0,0,2.178,2.628,5.24,5.24,0,0,0,3.078.972,3.913,3.913,0,0,0,2.34-.648,2.06,2.06,0,0,0,.9-1.764,1.706,1.706,0,0,0-.4-1.17,3.1,3.1,0,0,0-.99-.738,5.81,5.81,0,0,0-1.206-.432L73.728-8.5a7.5,7.5,0,0,1-3.762-2.178,5.085,5.085,0,0,1-1.242-3.4,5.313,5.313,0,0,1,.9-3.078,5.88,5.88,0,0,1,2.484-2.034,8.518,8.518,0,0,1,3.564-.72,8.733,8.733,0,0,1,4.752,1.314,7.109,7.109,0,0,1,2.952,3.654l-3.132,1.476A4.818,4.818,0,0,0,78.426-15.7a4.917,4.917,0,0,0-2.79-.828,3.316,3.316,0,0,0-2.124.63,2,2,0,0,0-.792,1.638,1.758,1.758,0,0,0,.36,1.134,2.574,2.574,0,0,0,.936.72,8.338,8.338,0,0,0,1.188.45l3.168.936A7.584,7.584,0,0,1,82.08-8.874a5.053,5.053,0,0,1,1.3,3.474,5.179,5.179,0,0,1-.918,3.042A6.1,6.1,0,0,1,79.92-.306,9.041,9.041,0,0,1,76.14.432Zm18.18,0a7.363,7.363,0,0,1-3.852-.99A6.761,6.761,0,0,1,87.894-3.33a8.878,8.878,0,0,1-.918-4.122V-19.476h4.068V-7.812a4.881,4.881,0,0,0,.54,2.34A3.879,3.879,0,0,0,93.1-3.906a4.4,4.4,0,0,0,2.232.558A4.365,4.365,0,0,0,97.6-3.924a4.066,4.066,0,0,0,1.53-1.62,5.119,5.119,0,0,0,.558-2.448V-19.476h4.032V0H99.864V-3.816l.432.5A5.406,5.406,0,0,1,98.028-.54,6.947,6.947,0,0,1,94.32.432ZM108.468,0V-27.252h4.068V0Zm17.964.432a9.844,9.844,0,0,1-5.166-1.35,9.473,9.473,0,0,1-3.51-3.672,10.728,10.728,0,0,1-1.26-5.2,10.45,10.45,0,0,1,1.278-5.22,9.665,9.665,0,0,1,3.438-3.582,9.232,9.232,0,0,1,4.9-1.314,9.7,9.7,0,0,1,3.924.756,8.424,8.424,0,0,1,2.916,2.07,9.252,9.252,0,0,1,1.818,3.006,10.233,10.233,0,0,1,.63,3.6q0,.468-.036.972a5.467,5.467,0,0,1-.144.936H119.7v-3.24h13.212l-1.944,1.476a5.2,5.2,0,0,0-.234-3.15,4.912,4.912,0,0,0-1.8-2.2,4.948,4.948,0,0,0-2.826-.81,5.209,5.209,0,0,0-2.88.81,5.263,5.263,0,0,0-1.944,2.3,7.418,7.418,0,0,0-.54,3.618A6.319,6.319,0,0,0,121.3-6.3,5.55,5.55,0,0,0,123.39-4a5.767,5.767,0,0,0,3.078.828,5.475,5.475,0,0,0,3.006-.792,5.839,5.839,0,0,0,1.962-2.052l3.312,1.62a7,7,0,0,1-1.782,2.466A8.86,8.86,0,0,1,130.086-.2,10.294,10.294,0,0,1,126.432.432ZM146.772,0V-7.236h-7.236v-3.6h7.236V-18h3.6v7.164h7.164v3.6h-7.164V0Z" transform="translate(647.112 66)" fill="#fff"/>
    <path id="bolt" d="M17.6,38.158H11.487l3.18-12.719H8.1a4.072,4.072,0,0,1-3.9-5.247L10.306,0H25.358l-4.77,12.719h6.4a4.027,4.027,0,0,1,3.355,6.251Z" transform="translate(609.002 37.033)" fill="#2edc90"/>
  </g>
</svg>
